REM DIRINDEX 1\2,1\3,1\4,1\5
REM DIRNAME folder01,folder02,folder03,folder04,folder05
TITLE ""
FILE "1Q_t_1490-1499.mp3" MP3
  TRACK 01 AUDIO
    TITLE "3:cjc004_5376"
    INDEX 01 00:00:00
  TRACK 02 AUDIO
    TITLE "0:"
    INDEX 01 00:01:09
  TRACK 03 AUDIO
    TITLE "4:cjc004_5377"
    INDEX 01 00:01:40
  TRACK 04 AUDIO
    TITLE "0:"
    INDEX 01 00:02:61
  TRACK 05 AUDIO
    TITLE "5:cjc004_5378"
    INDEX 01 00:03:12
  TRACK 06 AUDIO
    TITLE "0:"
    INDEX 01 00:07:21
  TRACK 07 AUDIO
    TITLE "3:cjc004_5379"
    INDEX 01 00:08:09
  TRACK 08 AUDIO
    TITLE "0:"
    INDEX 01 00:09:06
  TRACK 09 AUDIO
    TITLE "4:cjc004_5380"
    INDEX 01 00:09:36
  TRACK 10 AUDIO
    TITLE "0:"
    INDEX 01 00:10:63
  TRACK 11 AUDIO
    TITLE "5:cjc004_5381"
    INDEX 01 00:11:15
  TRACK 12 AUDIO
    TITLE "0:"
    INDEX 01 00:14:58
  TRACK 13 AUDIO
    TITLE "3:cjc004_5382"
    INDEX 01 00:15:36
  TRACK 14 AUDIO
    TITLE "0:"
    INDEX 01 00:16:63
  TRACK 15 AUDIO
    TITLE "4:cjc004_5383"
    INDEX 01 00:17:18
  TRACK 16 AUDIO
    TITLE "0:"
    INDEX 01 00:18:48
  TRACK 17 AUDIO
    TITLE "5:cjc004_5384"
    INDEX 01 00:18:74
  TRACK 18 AUDIO
    TITLE "0:"
    INDEX 01 00:24:06
  TRACK 19 AUDIO
    TITLE "3:cjc004_5385"
    INDEX 01 00:24:59
  TRACK 20 AUDIO
    TITLE "0:"
    INDEX 01 00:25:66
  TRACK 21 AUDIO
    TITLE "4:cjc004_5386"
    INDEX 01 00:26:24
  TRACK 22 AUDIO
    TITLE "0:"
    INDEX 01 00:27:51
  TRACK 23 AUDIO
    TITLE "5:cjc004_5387"
    INDEX 01 00:28:02
  TRACK 24 AUDIO
    TITLE "0:"
    INDEX 01 00:32:72
  TRACK 25 AUDIO
    TITLE "3:cjc004_5388"
    INDEX 01 00:33:54
  TRACK 26 AUDIO
    TITLE "0:"
    INDEX 01 00:34:67
  TRACK 27 AUDIO
    TITLE "4:cjc004_5389"
    INDEX 01 00:35:15
  TRACK 28 AUDIO
    TITLE "0:"
    INDEX 01 00:36:21
  TRACK 29 AUDIO
    TITLE "5:cjc004_5390"
    INDEX 01 00:36:46
  TRACK 30 AUDIO
    TITLE "0:"
    INDEX 01 00:40:54
  TRACK 31 AUDIO
    TITLE "3:cjc004_5391"
    INDEX 01 00:41:30
  TRACK 32 AUDIO
    TITLE "0:"
    INDEX 01 00:42:31
  TRACK 33 AUDIO
    TITLE "4:cjc004_5392"
    INDEX 01 00:42:63
  TRACK 34 AUDIO
    TITLE "0:"
    INDEX 01 00:44:12
  TRACK 35 AUDIO
    TITLE "5:cjc004_5393"
    INDEX 01 00:44:40
  TRACK 36 AUDIO
    TITLE "0:"
    INDEX 01 00:49:31
  TRACK 37 AUDIO
    TITLE "3:cjc004_5394"
    INDEX 01 00:50:07
  TRACK 38 AUDIO
    TITLE "0:"
    INDEX 01 00:51:07
  TRACK 39 AUDIO
    TITLE "4:cjc004_5395"
    INDEX 01 00:51:32
  TRACK 40 AUDIO
    TITLE "0:"
    INDEX 01 00:52:57
  TRACK 41 AUDIO
    TITLE "5:cjc004_5396"
    INDEX 01 00:53:11
  TRACK 42 AUDIO
    TITLE "0:"
    INDEX 01 00:57:43
  TRACK 43 AUDIO
    TITLE "3:cjc004_5397"
    INDEX 01 00:58:20
  TRACK 44 AUDIO
    TITLE "0:"
    INDEX 01 00:59:45
  TRACK 45 AUDIO
    TITLE "4:cjc004_5398"
    INDEX 01 00:59:73
  TRACK 46 AUDIO
    TITLE "0:"
    INDEX 01 01:01:19
  TRACK 47 AUDIO
    TITLE "5:cjc004_5399"
    INDEX 01 01:01:42
  TRACK 48 AUDIO
    TITLE "0:"
    INDEX 01 01:06:36
  TRACK 49 AUDIO
    TITLE "3:cjc004_5400"
    INDEX 01 01:07:12
  TRACK 50 AUDIO
    TITLE "0:"
    INDEX 01 01:08:31
  TRACK 51 AUDIO
    TITLE "4:cjc004_5401"
    INDEX 01 01:08:66
  TRACK 52 AUDIO
    TITLE "0:"
    INDEX 01 01:10:12
  TRACK 53 AUDIO
    TITLE "5:cjc004_5402"
    INDEX 01 01:10:35
  TRACK 54 AUDIO
    TITLE "0:"
    INDEX 01 01:15:40
  TRACK 55 AUDIO
    TITLE "3:cjc004_5403"
    INDEX 01 01:16:26
  TRACK 56 AUDIO
    TITLE "0:"
    INDEX 01 01:17:32
  TRACK 57 AUDIO
    TITLE "4:cjc004_5404"
    INDEX 01 01:17:61
  TRACK 58 AUDIO
    TITLE "0:"
    INDEX 01 01:19:07
  TRACK 59 AUDIO
    TITLE "5:cjc004_5405"
    INDEX 01 01:19:28
  TRACK 60 AUDIO
    TITLE "0:"
    INDEX 01 01:23:36
